<mxfile host="app.diagrams.net" modified="2022-09-11T16:09:02.308Z" agent="5.0 (Macintosh; Intel Mac OS X 10_15_7) AppleWebKit/605.1.15 (KHTML, like Gecko) Version/15.2 Safari/605.1.15" etag="NxbuD81GE0OgKf9jiolh" version="20.3.0" type="github">
  <diagram id="8CPqfHhHUvQ159KA6zUy" name="Seite-1">
    <mxGraphModel dx="700" dy="825" grid="1" gridSize="10" guides="1" tooltips="1" connect="1" arrows="1" fold="1" page="1" pageScale="1" pageWidth="827" pageHeight="1169" math="0" shadow="0">
      <root>
        <mxCell id="0" />
        <mxCell id="1" parent="0" />
        <mxCell id="TTw7TrBOl0EUvStgv37W-1" value="" style="rounded=0;whiteSpace=wrap;html=1;" vertex="1" parent="1">
          <mxGeometry x="80" y="40" width="600" height="540" as="geometry" />
        </mxCell>
        <mxCell id="TTw7TrBOl0EUvStgv37W-6" style="edgeStyle=orthogonalEdgeStyle;rounded=0;orthogonalLoop=1;jettySize=auto;html=1;exitX=0.5;exitY=0.5;exitDx=0;exitDy=0;exitPerimeter=0;" edge="1" parent="1" source="TTw7TrBOl0EUvStgv37W-2" target="TTw7TrBOl0EUvStgv37W-4">
          <mxGeometry relative="1" as="geometry" />
        </mxCell>
        <mxCell id="TTw7TrBOl0EUvStgv37W-2" value="Customer [Person]&lt;br&gt;SSO via IAM Provider" style="shape=umlActor;verticalLabelPosition=bottom;verticalAlign=top;html=1;" vertex="1" parent="1">
          <mxGeometry x="200" y="80" width="30" height="60" as="geometry" />
        </mxCell>
        <mxCell id="TTw7TrBOl0EUvStgv37W-8" style="edgeStyle=orthogonalEdgeStyle;rounded=0;orthogonalLoop=1;jettySize=auto;html=1;exitX=0.5;exitY=0;exitDx=0;exitDy=0;exitPerimeter=0;entryX=1;entryY=0.25;entryDx=0;entryDy=0;" edge="1" parent="1" source="TTw7TrBOl0EUvStgv37W-3" target="TTw7TrBOl0EUvStgv37W-4">
          <mxGeometry relative="1" as="geometry" />
        </mxCell>
        <mxCell id="TTw7TrBOl0EUvStgv37W-3" value="Employee [Person]&lt;br&gt;SSO via IAM Provider" style="shape=umlActor;verticalLabelPosition=bottom;verticalAlign=top;html=1;" vertex="1" parent="1">
          <mxGeometry x="580" y="380" width="30" height="60" as="geometry" />
        </mxCell>
        <mxCell id="TTw7TrBOl0EUvStgv37W-16" style="edgeStyle=orthogonalEdgeStyle;rounded=0;orthogonalLoop=1;jettySize=auto;html=1;exitX=0.75;exitY=1;exitDx=0;exitDy=0;" edge="1" parent="1" source="TTw7TrBOl0EUvStgv37W-4" target="TTw7TrBOl0EUvStgv37W-13">
          <mxGeometry relative="1" as="geometry" />
        </mxCell>
        <mxCell id="TTw7TrBOl0EUvStgv37W-18" value="Gets IAM Information [OAuth/Rest]" style="edgeLabel;html=1;align=center;verticalAlign=middle;resizable=0;points=[];" vertex="1" connectable="0" parent="TTw7TrBOl0EUvStgv37W-16">
          <mxGeometry x="-0.2214" y="3" relative="1" as="geometry">
            <mxPoint as="offset" />
          </mxGeometry>
        </mxCell>
        <mxCell id="TTw7TrBOl0EUvStgv37W-17" value="sends notification [Rest API]" style="edgeStyle=orthogonalEdgeStyle;rounded=0;orthogonalLoop=1;jettySize=auto;html=1;exitX=0.25;exitY=1;exitDx=0;exitDy=0;" edge="1" parent="1" source="TTw7TrBOl0EUvStgv37W-4" target="TTw7TrBOl0EUvStgv37W-11">
          <mxGeometry relative="1" as="geometry">
            <Array as="points">
              <mxPoint x="330" y="490" />
              <mxPoint x="280" y="490" />
            </Array>
          </mxGeometry>
        </mxCell>
        <mxCell id="TTw7TrBOl0EUvStgv37W-4" value="CarRent [Software System]Â " style="swimlane;" vertex="1" parent="1">
          <mxGeometry x="280" y="240" width="200" height="200" as="geometry" />
        </mxCell>
        <mxCell id="TTw7TrBOl0EUvStgv37W-5" value="Car Rental and Car Rental Management System&amp;nbsp;" style="text;html=1;strokeColor=none;fillColor=none;align=center;verticalAlign=middle;whiteSpace=wrap;rounded=0;" vertex="1" parent="TTw7TrBOl0EUvStgv37W-4">
          <mxGeometry x="10" y="30" width="180" height="160" as="geometry" />
        </mxCell>
        <mxCell id="TTw7TrBOl0EUvStgv37W-9" value="View available Cars, Rent Car, Manage billing Infos and Contact Infos" style="text;html=1;strokeColor=none;fillColor=none;align=left;verticalAlign=top;whiteSpace=wrap;rounded=0;" vertex="1" parent="1">
          <mxGeometry x="400" y="70" width="130" height="80" as="geometry" />
        </mxCell>
        <mxCell id="TTw7TrBOl0EUvStgv37W-10" value="Manage Cars, Manage billing, Userinformation" style="text;html=1;strokeColor=none;fillColor=none;align=left;verticalAlign=top;whiteSpace=wrap;rounded=0;" vertex="1" parent="1">
          <mxGeometry x="530" y="200" width="130" height="80" as="geometry" />
        </mxCell>
        <mxCell id="TTw7TrBOl0EUvStgv37W-11" value="Notification Provider [Softwre System]" style="swimlane;" vertex="1" parent="1">
          <mxGeometry x="170" y="600" width="220" height="140" as="geometry" />
        </mxCell>
        <mxCell id="TTw7TrBOl0EUvStgv37W-12" value="Send Notification by Mail, SMS or Phone" style="text;html=1;strokeColor=none;fillColor=none;align=center;verticalAlign=middle;whiteSpace=wrap;rounded=0;" vertex="1" parent="TTw7TrBOl0EUvStgv37W-11">
          <mxGeometry x="10" y="30" width="200" height="100" as="geometry" />
        </mxCell>
        <mxCell id="TTw7TrBOl0EUvStgv37W-13" value="Notification Provider [Softwre System]" style="swimlane;" vertex="1" parent="1">
          <mxGeometry x="440" y="600" width="220" height="140" as="geometry" />
        </mxCell>
        <mxCell id="TTw7TrBOl0EUvStgv37W-14" value="Provides Identity and Authentifation&amp;nbsp;Services&amp;nbsp;" style="text;html=1;strokeColor=none;fillColor=none;align=center;verticalAlign=middle;whiteSpace=wrap;rounded=0;" vertex="1" parent="TTw7TrBOl0EUvStgv37W-13">
          <mxGeometry x="10" y="30" width="200" height="100" as="geometry" />
        </mxCell>
      </root>
    </mxGraphModel>
  </diagram>
</mxfile>
